<svg width="507" height="197" viewBox="0 0 507 197" fill="none" xmlns="http://www.w3.org/2000/svg">
<path d="M3.31555 5.12616C3.82611 5.77855 4.76887 5.89353 5.42127 5.38297C6.07366 4.87241 6.18864 3.92965 5.67808 3.27725L3.31555 5.12616ZM10.6514 9.58681C10.1363 8.93802 9.19271 8.82965 8.54391 9.34477C7.89511 9.85989 7.78674 10.8034 8.30187 11.4522L10.6514 9.58681ZM13.271 17.6648C13.7908 18.3098 14.7351 18.4113 15.3802 17.8915C16.0252 17.3717 16.1267 16.4273 15.6069 15.7823L13.271 17.6648ZM20.6701 22.016C20.1453 21.375 19.2002 21.2808 18.5592 21.8056C17.9182 22.3304 17.824 23.2755 18.3488 23.9165L20.6701 22.016ZM23.4612 30.1098C23.9912 30.7466 24.937 30.8331 25.5737 30.3031C26.2104 29.7732 26.2969 28.8274 25.767 28.1906L23.4612 30.1098ZM30.8521 34.2485C30.3168 33.6162 29.3703 33.5376 28.7381 34.073C28.1058 34.6083 28.0272 35.5548 28.5626 36.187L30.8521 34.2485ZM33.8251 42.3463C34.3661 42.9737 35.3132 43.0438 35.9406 42.5028C36.568 41.9618 36.638 41.0146 36.097 40.3872L33.8251 42.3463ZM41.3282 46.3971C40.7814 45.7748 39.8336 45.7137 39.2113 46.2605C38.589 46.8074 38.5279 47.7551 39.0747 48.3774L41.3282 46.3971ZM44.3888 54.3655C44.9417 54.9823 45.8901 55.0342 46.5069 54.4812C47.1238 53.9283 47.1756 52.9799 46.6227 52.363L44.3888 54.3655ZM52.0103 58.3115C51.451 57.7004 50.5022 57.6584 49.8911 58.2178C49.28 58.7771 49.2381 59.726 49.7974 60.337L52.0103 58.3115ZM55.1969 66.1728C55.7628 66.7778 56.712 66.8095 57.317 66.2436C57.922 65.6776 57.9537 64.7284 57.3878 64.1234L55.1969 66.1728ZM62.9212 69.9715C62.3483 69.3731 61.3988 69.3523 60.8004 69.9252C60.2019 70.4981 60.1812 71.4476 60.7541 72.046L62.9212 69.9715ZM66.3222 77.7936C66.9022 78.3851 67.8519 78.3944 68.4434 77.8144C69.0349 77.2344 69.0442 76.2847 68.4642 75.6932L66.3222 77.7936ZM74.0876 81.3566C73.5002 80.7725 72.5505 80.7752 71.9663 81.3626C71.3822 81.9501 71.3849 82.8998 71.9723 83.4839L74.0876 81.3566ZM77.7158 89.12C78.311 89.6962 79.2606 89.6809 79.8369 89.0857C80.4131 88.4905 80.3978 87.5409 79.8026 86.9647L77.7158 89.12ZM85.5366 92.4405C84.9335 91.8726 83.9842 91.9011 83.4163 92.5042C82.8483 93.1073 82.8768 94.0566 83.4799 94.6245L85.5366 92.4405ZM89.4048 100.123C90.0162 100.682 90.965 100.639 91.524 100.028C92.083 99.4167 92.0405 98.4679 91.4291 97.9089L89.4048 100.123ZM97.3229 103.216C96.7031 102.667 95.755 102.724 95.2054 103.343C94.6558 103.963 94.7128 104.911 95.3326 105.461L97.3229 103.216ZM101.415 110.767C102.044 111.307 102.991 111.235 103.53 110.606C104.07 109.977 103.997 109.03 103.369 108.491L101.415 110.767ZM109.449 113.622C108.812 113.093 107.866 113.181 107.337 113.818C106.808 114.456 106.896 115.402 107.534 115.931L109.449 113.622ZM113.77 121.012C114.417 121.529 115.361 121.424 115.879 120.777C116.396 120.131 116.291 119.187 115.644 118.669L113.77 121.012ZM121.915 123.593C121.259 123.087 120.317 123.209 119.811 123.866C119.306 124.522 119.428 125.464 120.084 125.969L121.915 123.593ZM126.49 130.808C127.156 131.3 128.096 131.16 128.588 130.494C129.081 129.828 128.941 128.889 128.275 128.396L126.49 130.808ZM134.738 133.081C134.063 132.602 133.126 132.761 132.647 133.436C132.167 134.112 132.326 135.048 133.002 135.528L134.738 133.081ZM139.591 140.102C140.276 140.567 141.209 140.388 141.674 139.703C142.14 139.018 141.961 138.085 141.276 137.619L139.591 140.102ZM147.931 142.033C147.235 141.583 146.307 141.781 145.856 142.477C145.406 143.172 145.604 144.101 146.3 144.551L147.931 142.033ZM153.08 148.836C153.785 149.271 154.709 149.052 155.144 148.346C155.578 147.641 155.359 146.717 154.654 146.282L153.08 148.836ZM161.498 150.393C160.783 149.975 159.864 150.216 159.446 150.931C159.028 151.646 159.268 152.565 159.983 152.983L161.498 150.393ZM166.957 156.952C167.682 157.353 168.595 157.091 168.996 156.366C169.397 155.641 169.135 154.728 168.41 154.327L166.957 156.952ZM175.438 158.105C174.703 157.722 173.797 158.007 173.414 158.741C173.031 159.475 173.315 160.382 174.05 160.765L175.438 158.105ZM181.214 164.391C181.958 164.755 182.857 164.448 183.222 163.704C183.586 162.96 183.279 162.062 182.535 161.697L181.214 164.391ZM189.738 165.116C188.985 164.77 188.095 165.1 187.749 165.853C187.404 166.606 187.734 167.497 188.487 167.842L189.738 165.116ZM195.833 171.099C196.594 171.425 197.476 171.072 197.802 170.31C198.128 169.549 197.774 168.667 197.013 168.341L195.833 171.099ZM204.379 171.379C203.609 171.073 202.737 171.449 202.431 172.219C202.126 172.989 202.502 173.861 203.272 174.167L204.379 171.379ZM210.783 177.033C211.561 177.318 212.422 176.919 212.707 176.141C212.992 175.363 212.593 174.502 211.815 174.217L210.783 177.033ZM219.33 176.857C218.545 176.593 217.694 177.015 217.43 177.8C217.166 178.585 217.588 179.436 218.373 179.7L219.33 176.857ZM226.028 182.161C226.82 182.404 227.659 181.958 227.902 181.166C228.145 180.374 227.7 179.535 226.908 179.292L226.028 182.161ZM234.554 181.525C233.755 181.304 232.929 181.771 232.707 182.57C232.485 183.368 232.953 184.195 233.751 184.416L234.554 181.525ZM241.526 186.463C242.329 186.663 243.143 186.174 243.344 185.37C243.544 184.566 243.055 183.752 242.251 183.552L241.526 186.463ZM250.007 185.375C249.198 185.196 248.397 185.707 248.219 186.516C248.04 187.325 248.55 188.125 249.359 188.304L250.007 185.375ZM257.227 189.937C258.04 190.095 258.827 189.564 258.985 188.751C259.143 187.937 258.612 187.15 257.798 186.992L257.227 189.937ZM265.644 188.411C264.827 188.274 264.054 188.825 263.917 189.642C263.78 190.459 264.331 191.232 265.148 191.369L265.644 188.411ZM273.084 192.597C273.904 192.714 274.663 192.143 274.78 191.323C274.896 190.503 274.326 189.743 273.505 189.627L273.084 192.597ZM281.419 190.651C280.596 190.555 279.851 191.144 279.754 191.967C279.658 192.789 280.247 193.535 281.07 193.631L281.419 190.651ZM289.05 194.469C289.875 194.545 290.606 193.939 290.683 193.114C290.759 192.289 290.153 191.558 289.328 191.481L289.05 194.469ZM297.286 192.128C296.459 192.071 295.743 192.694 295.685 193.52C295.627 194.347 296.251 195.063 297.077 195.121L297.286 192.128ZM305.084 195.589C305.911 195.628 306.614 194.989 306.653 194.161C306.692 193.334 306.053 192.631 305.225 192.592L305.084 195.589ZM313.206 192.883C312.378 192.861 311.689 193.516 311.668 194.344C311.647 195.172 312.301 195.86 313.129 195.882L313.206 192.883ZM321.149 196.003C321.977 196.007 322.652 195.339 322.656 194.511C322.66 193.682 321.992 193.007 321.163 193.003L321.149 196.003ZM329.145 192.962C328.317 192.974 327.656 193.656 327.668 194.484C327.681 195.313 328.363 195.974 329.191 195.961L329.145 192.962ZM337.216 195.762C338.044 195.733 338.692 195.039 338.664 194.211C338.635 193.383 337.941 192.735 337.113 192.764L337.216 195.762ZM345.078 192.416C344.251 192.459 343.616 193.166 343.659 193.993C343.703 194.82 344.409 195.455 345.236 195.412L345.078 192.416ZM353.265 194.916C354.092 194.857 354.714 194.14 354.656 193.314C354.598 192.488 353.881 191.865 353.054 191.923L353.265 194.916ZM360.985 191.296C360.16 191.368 359.549 192.096 359.622 192.921C359.694 193.746 360.421 194.357 361.247 194.285L360.985 191.296ZM369.282 193.516C370.106 193.431 370.704 192.693 370.619 191.869C370.533 191.045 369.796 190.447 368.972 190.532L369.282 193.516ZM376.854 189.653C376.032 189.751 375.444 190.497 375.543 191.32C375.641 192.142 376.387 192.73 377.21 192.632L376.854 189.653ZM385.229 191.615C386.05 191.505 386.626 190.75 386.516 189.929C386.406 189.108 385.651 188.532 384.83 188.642L385.229 191.615ZM392.68 187.533C391.861 187.654 391.295 188.417 391.417 189.236C391.538 190.056 392.301 190.622 393.12 190.5L392.68 187.533ZM401.072 189.266C401.89 189.134 402.445 188.363 402.313 187.546C402.181 186.728 401.41 186.172 400.592 186.305L401.072 189.266ZM408.463 184.979C407.647 185.121 407.101 185.899 407.244 186.715C407.386 187.531 408.164 188.076 408.98 187.934L408.463 184.979ZM416.854 186.507C417.668 186.354 418.204 185.57 418.052 184.756C417.899 183.942 417.116 183.405 416.301 183.558L416.854 186.507ZM424.206 182.029C423.393 182.191 422.866 182.981 423.028 183.794C423.19 184.606 423.98 185.133 424.792 184.971L424.206 182.029ZM432.581 183.375C433.391 183.204 433.91 182.408 433.739 181.598C433.569 180.787 432.773 180.268 431.962 180.439L432.581 183.375ZM439.807 178.744C438.998 178.923 438.488 179.724 438.667 180.533C438.846 181.342 439.647 181.852 440.456 181.673L439.807 178.744ZM448.264 179.903C449.071 179.715 449.573 178.91 449.386 178.103C449.199 177.296 448.393 176.793 447.586 176.98L448.264 179.903ZM455.339 175.144C454.534 175.338 454.039 176.149 454.234 176.954C454.428 177.759 455.239 178.254 456.044 178.06L455.339 175.144ZM463.91 176.12C464.713 175.918 465.201 175.103 464.999 174.3C464.797 173.496 463.982 173.009 463.179 173.211L463.91 176.12ZM470.841 171.25C470.039 171.459 469.559 172.278 469.767 173.08C469.976 173.882 470.795 174.362 471.597 174.154L470.841 171.25ZM479.36 172.099C480.16 171.884 480.634 171.061 480.419 170.261C480.204 169.461 479.381 168.987 478.581 169.202L479.36 172.099ZM486.328 167.086C485.53 167.307 485.062 168.134 485.283 168.932C485.505 169.73 486.331 170.198 487.13 169.977L486.328 167.086ZM494.788 167.823C495.585 167.596 496.046 166.766 495.819 165.969C495.592 165.172 494.762 164.711 493.965 164.938L494.788 167.823ZM501.684 162.708C500.889 162.941 500.433 163.774 500.665 164.569C500.898 165.364 501.731 165.82 502.526 165.587L501.684 162.708ZM0.81559 1.92042C1.64969 2.99375 2.483 4.06233 3.31555 5.12616L5.67808 3.27725C4.84765 2.21613 4.01644 1.15024 3.18441 0.0795797L0.81559 1.92042ZM8.30187 11.4522C9.96104 13.542 11.6174 15.6128 13.271 17.6648L15.6069 15.7823C13.9579 13.7361 12.3061 11.671 10.6514 9.58681L8.30187 11.4522ZM18.3488 23.9165C20.0555 26.0011 21.7596 28.0655 23.4612 30.1098L25.767 28.1906C24.0706 26.1526 22.3717 24.0944 20.6701 22.016L18.3488 23.9165ZM28.5626 36.187C30.319 38.2615 32.0731 40.3146 33.8251 42.3463L36.097 40.3872C34.3511 38.3625 32.6029 36.3162 30.8521 34.2485L28.5626 36.187ZM39.0747 48.3774C40.8479 50.3953 42.6192 52.3913 44.3888 54.3655L46.6227 52.363C44.8598 50.3964 43.0951 48.4078 41.3282 46.3971L39.0747 48.3774ZM49.7974 60.337C51.5987 62.3049 53.3984 64.2501 55.1969 66.1728L57.3878 64.1234C55.5968 62.2088 53.8044 60.2715 52.0103 58.3115L49.7974 60.337ZM60.7541 72.046C62.6111 73.9859 64.467 75.9017 66.3222 77.7936L68.4642 75.6932C66.6176 73.81 64.77 71.9028 62.9212 69.9715L60.7541 72.046ZM71.9723 83.4839C73.8872 85.388 75.8016 87.2667 77.7158 89.12L79.8026 86.9647C77.8981 85.1208 75.9933 83.2515 74.0876 81.3566L71.9723 83.4839ZM83.4799 94.6245C85.4546 96.4842 87.4295 98.317 89.4048 100.123L91.4291 97.9089C89.4649 96.113 87.5008 94.2902 85.5366 92.4405L83.4799 94.6245ZM95.3326 105.461C97.3591 107.258 99.3865 109.027 101.415 110.767L103.369 108.491C101.353 106.761 99.3375 105.002 97.3229 103.216L95.3326 105.461ZM107.534 115.931C109.611 117.653 111.689 119.347 113.77 121.012L115.644 118.669C113.578 117.016 111.513 115.333 109.449 113.622L107.534 115.931ZM120.084 125.969C122.217 127.612 124.352 129.225 126.49 130.808L128.275 128.396C126.153 126.825 124.033 125.224 121.915 123.593L120.084 125.969ZM133.002 135.528C135.194 137.083 137.391 138.608 139.591 140.102L141.276 137.619C139.093 136.138 136.914 134.625 134.738 133.081L133.002 135.528ZM146.3 144.551C148.555 146.012 150.815 147.44 153.08 148.836L154.654 146.282C152.408 144.898 150.167 143.482 147.931 142.033L146.3 144.551ZM159.983 152.983C162.302 154.339 164.626 155.662 166.957 156.952L168.41 154.327C166.1 153.049 163.796 151.737 161.498 150.393L159.983 152.983ZM174.05 160.765C176.431 162.007 178.819 163.216 181.214 164.391L182.535 161.697C180.162 160.533 177.797 159.336 175.438 158.105L174.05 160.765ZM188.487 167.842C190.927 168.962 193.375 170.048 195.833 171.099L197.013 168.341C194.579 167.3 192.155 166.225 189.738 165.116L188.487 167.842ZM203.272 174.167C205.766 175.157 208.269 176.112 210.783 177.033L211.815 174.217C209.327 173.305 206.848 172.359 204.379 171.379L203.272 174.167ZM218.373 179.7C220.914 180.555 223.466 181.375 226.028 182.161L226.908 179.292C224.371 178.514 221.845 177.702 219.33 176.857L218.373 179.7ZM233.751 184.416C236.331 185.132 238.922 185.814 241.526 186.463L242.251 183.552C239.673 182.91 237.107 182.234 234.554 181.525L233.751 184.416ZM249.359 188.304C251.969 188.882 254.591 189.426 257.227 189.937L257.798 186.992C255.188 186.486 252.591 185.947 250.007 185.375L249.359 188.304ZM265.148 191.369C267.78 191.81 270.425 192.22 273.084 192.597L273.505 189.627C270.871 189.253 268.251 188.848 265.644 188.411L265.148 191.369ZM281.07 193.631C283.716 193.941 286.376 194.22 289.05 194.469L289.328 191.481C286.677 191.235 284.041 190.958 281.419 190.651L281.07 193.631ZM297.077 195.121C299.731 195.306 302.4 195.462 305.084 195.589L305.225 192.592C302.564 192.466 299.917 192.312 297.286 192.128L297.077 195.121ZM313.129 195.882C315.787 195.95 318.46 195.99 321.149 196.003L321.163 193.003C318.495 192.99 315.843 192.95 313.206 192.883L313.129 195.882ZM329.191 195.961C331.851 195.921 334.526 195.854 337.216 195.762L337.113 192.764C334.442 192.856 331.786 192.922 329.145 192.962L329.191 195.961ZM345.236 195.412C347.897 195.271 350.574 195.106 353.265 194.916L353.054 191.923C350.38 192.112 347.721 192.276 345.078 192.416L345.236 195.412ZM361.247 194.285C363.91 194.052 366.588 193.796 369.282 193.516L368.972 190.532C366.294 190.81 363.632 191.065 360.985 191.296L361.247 194.285ZM377.21 192.632C379.867 192.315 382.54 191.976 385.229 191.615L384.83 188.642C382.155 189.001 379.497 189.338 376.854 189.653L377.21 192.632ZM393.12 190.5C395.756 190.109 398.406 189.698 401.072 189.266L400.592 186.305C397.94 186.734 395.302 187.144 392.68 187.533L393.12 190.5ZM408.98 187.934C411.59 187.477 414.214 187.001 416.854 186.507L416.301 183.558C413.673 184.05 411.061 184.524 408.463 184.979L408.98 187.934ZM424.792 184.971C427.374 184.457 429.97 183.924 432.581 183.375L431.962 180.439C429.362 180.987 426.777 181.517 424.206 182.029L424.792 184.971ZM440.456 181.673C443.044 181.099 445.647 180.509 448.264 179.903L447.586 176.98C444.979 177.585 442.386 178.173 439.807 178.744L440.456 181.673ZM456.044 178.06C458.652 177.429 461.274 176.783 463.91 176.12L463.179 173.211C460.551 173.871 457.938 174.516 455.339 175.144L456.044 178.06ZM471.597 174.154C474.171 173.484 476.759 172.799 479.36 172.099L478.581 169.202C475.987 169.9 473.407 170.582 470.841 171.25L471.597 174.154ZM487.13 169.977C489.669 169.273 492.222 168.555 494.788 167.823L493.965 164.938C491.406 165.668 488.861 166.384 486.328 167.086L487.13 169.977ZM502.526 165.587C503.823 165.207 505.123 164.824 506.426 164.438L505.574 161.562C504.274 161.947 502.977 162.329 501.684 162.708L502.526 165.587Z" fill="#698cb8"/>
</svg>
